<svg xmlns="http://www.w3.org/2000/svg" viewBox="0 0 643.7 525.51"><defs><style>.cls-1{fill:#fff;}.cls-2,.cls-3{fill:#e9bf85;}.cls-3{fill-rule:evenodd;}.cls-4{fill:#af8962;}</style></defs><g id="Calque_2" data-name="Calque 2"><g id="Layer_1" data-name="Layer 1"><path class="cls-1" d="M1.32,449.29a6.13,6.13,0,0,0,4.5-1.87,6.53,6.53,0,0,0,2-4.51V386.82a6.53,6.53,0,0,0-2-4.5,6.14,6.14,0,0,0-4.5-1.88H0v-1H30.78l-.1,1H29.46a6.3,6.3,0,0,0-4.55,1.88,6,6,0,0,0-1.93,4.5V446H36.24a18.55,18.55,0,0,0,12.41-4.25,25.15,25.15,0,0,0,7.44-12.05h1L52.44,450.3H0v-1Z"/><path class="cls-1" d="M178,380.44h-1.73a5.27,5.27,0,0,0-3.64,1.37A4.73,4.73,0,0,0,171,385.2v39.49q0,12.45-7.8,19.74t-21.36,7.29q-16,0-24.5-7.14t-8.5-19.79V385.51a4.93,4.93,0,0,0-2.74-4.46,5.85,5.85,0,0,0-2.63-.61h-1.62v-1H131v1h-1.62a5.42,5.42,0,0,0-3.75,1.37A4.84,4.84,0,0,0,124,385.3V424q0,10.72,5.27,17t14.48,6.27q9.21,0,14.57-5.92t5.47-16v-40a4.87,4.87,0,0,0-2.73-4.25,5.88,5.88,0,0,0-2.63-.61h-1.62v-1H178Z"/><path class="cls-1" d="M265.06,449.29a4,4,0,0,0,3.44-2,4.48,4.48,0,0,0,.6-2.12,4,4,0,0,0-.6-2L254.32,421l-14.88,22a4.06,4.06,0,0,0-.61,2.08,4,4,0,0,0,.61,2.07,4.17,4.17,0,0,0,3.54,2.13h1.32v1h-25v-1h1.42q5.67,0,10-5.67l20-28.25L232,386.42a14.9,14.9,0,0,0-4.46-4.26,10.7,10.7,0,0,0-5.77-1.72h-1.41v-1h34.42v1h-1.32a4,4,0,0,0-3.44,2,4.47,4.47,0,0,0-.61,2.17,4,4,0,0,0,.51,2l12.65,19.54L275,386.72a4,4,0,0,0,.6-2.08,3.58,3.58,0,0,0-.7-2.07,3.94,3.94,0,0,0-3.45-2.13h-1.31v-1H295v1h-1.41a10.4,10.4,0,0,0-5.67,1.67,16.12,16.12,0,0,0-4.46,4.21l-17.21,25.61,20.35,31.49a14.33,14.33,0,0,0,4.51,4.2,11,11,0,0,0,5.72,1.67h1.41v1H263.74v-1Z"/><path class="cls-1" d="M415.9,380.44h-1.72a5.27,5.27,0,0,0-3.64,1.37,4.69,4.69,0,0,0-1.62,3.39v39.49q0,12.45-7.8,19.74t-21.36,7.29q-16,0-24.5-7.14t-8.5-19.79V385.51a4.93,4.93,0,0,0-2.74-4.46,5.88,5.88,0,0,0-2.63-.61h-1.62v-1h29.16v1h-1.62a5.4,5.4,0,0,0-3.75,1.37,4.84,4.84,0,0,0-1.62,3.49V424q0,10.72,5.27,17t14.47,6.27q9.21,0,14.58-5.92t5.47-16v-40a4.89,4.89,0,0,0-2.73-4.25,5.89,5.89,0,0,0-2.64-.61h-1.62v-1H415.9Z"/><path class="cls-1" d="M490.32,383.89h-4.66v59a6.53,6.53,0,0,0,2,4.51,6.12,6.12,0,0,0,4.5,1.87h1.32v1H462.68v-1H464a6.14,6.14,0,0,0,5.56-3.14,7.09,7.09,0,0,0,.92-3.14V386.82a6.53,6.53,0,0,0-2-4.5,6.14,6.14,0,0,0-4.5-1.88h-1.32v-1h34.73q9.81,0,16.6,4.25a15.23,15.23,0,0,1,5.47,5.93,21.06,21.06,0,0,1,2,9.92,19.43,19.43,0,0,1-4.25,11.79Q513,417,504.9,417.8q5.87,1.92,10.32,8.91,10.93,17.52,16.2,20.86a13.05,13.05,0,0,0,6.58,1.72v1h-9.92q-8.8,0-14.63-2.33a18.11,18.11,0,0,1-9.16-8.2q-1.92-3.34-8.4-17.31-2.83-6.18-6.89-6.78v-1h3.14a12.71,12.71,0,0,0,8.05-2.73q3.49-2.73,4.71-8.91a18.94,18.94,0,0,0,.4-3.34q0-8.3-3.34-12a11.38,11.38,0,0,0-8.6-3.79Z"/><path class="cls-1" d="M643.7,380.44h-1.41a10.76,10.76,0,0,0-5.78,1.72,14.34,14.34,0,0,0-4.35,4.16l-19.94,31.79v24.8a6.07,6.07,0,0,0,1.92,4.51,6.29,6.29,0,0,0,4.55,1.87h1.22l.1,1H589.23v-1h1.32a6.27,6.27,0,0,0,4.51-1.82,6.39,6.39,0,0,0,2-4.46V418l-19.34-31.79a12.66,12.66,0,0,0-4.3-4.1,11,11,0,0,0-5.72-1.67h-1.42v-1h33.51v1h-1.31a3.82,3.82,0,0,0-3.45,2,4.39,4.39,0,0,0-.1,4.25L609.38,413l15.09-26.32a4.68,4.68,0,0,0,.5-2.08,3.52,3.52,0,0,0-.71-2.07,3.79,3.79,0,0,0-3.44-2.13h-1.21v-1H643.7Z"/><path class="cls-2" d="M245.15,515.87c0,5.31-3.92,9.64-11.94,9.64-4.5,0-8.92-1.44-11.57-3.83l2.07-3.56a14.21,14.21,0,0,0,9.5,3.38c4.73,0,7.44-2.16,7.44-5.59s-2.39-5.49-7.8-5.49h-2.52v-3.16l7.93-9.72H223.08v-3.92h20.81v3.06l-8.24,10.18C242,507.45,245.15,511,245.15,515.87Z"/><path class="cls-2" d="M253.91,493.62H267.2c10.13,0,17,6.39,17,15.76s-6.89,15.77-17,15.77H253.91Zm13,27.61c7.79,0,12.79-4.78,12.79-11.85s-5-11.84-12.79-11.84h-8.52v23.69Z"/><path class="cls-2" d="M332.62,493.62l-13.83,31.53h-4.46l-13.87-31.53h4.86l11.36,25.9,11.44-25.9Z"/><path class="cls-2" d="M338.63,493.62h4.51v31.53h-4.51Z"/><path class="cls-2" d="M351.71,521.54l1.67-3.51a16.21,16.21,0,0,0,10.41,3.65c5.45,0,7.79-2.12,7.79-4.87,0-7.7-19.1-2.83-19.1-14.55,0-4.86,3.78-9,12.07-9a18.61,18.61,0,0,1,10.14,2.79l-1.49,3.6a16.37,16.37,0,0,0-8.65-2.57c-5.36,0-7.66,2.26-7.66,5,0,7.71,19.1,2.89,19.1,14.46,0,4.82-3.87,9-12.2,9C359,525.51,354.24,523.89,351.71,521.54Z"/><path class="cls-2" d="M384.57,493.62h4.5v31.53h-4.5Z"/><path class="cls-2" d="M406.79,497.54H396v-3.92h26.08v3.92H411.25v27.61h-4.46Z"/><polygon class="cls-3" points="379.34 228.64 379.34 130.54 462.5 177.05 462.5 329.98 428.18 329.98 428.18 255.96 379.34 228.64"/><polygon class="cls-3" points="358.16 22.25 358.16 217.17 332.48 202.81 324.74 198.48 324.74 216.68 324.73 330.24 305.89 330.24 305.89 49.52 298.19 53.7 272.2 67.78 272.2 22.18 313.98 0 358.16 22.25"/><polygon class="cls-3" points="261.74 85.33 261.74 330.24 238.43 330.24 238.43 196.22 229.97 202.86 209.46 218.96 209.46 173.36 209.47 113.66 261.47 85.47 261.74 85.33"/><polygon class="cls-3" points="199.04 240.43 199.04 330.24 181.21 330.24 181.21 254.43 199.04 240.43"/><polygon class="cls-4" points="181.21 254.43 199.04 240.43 199.04 330.24 181.21 330.24 181.21 254.43"/><polygon class="cls-4" points="261.47 85.47 261.74 85.33 261.74 330.24 238.43 330.24 238.43 196.22 229.97 202.86 209.46 218.96 209.46 173.36 209.47 113.66 261.47 85.47"/><polygon class="cls-4" points="313.98 0 313.98 330.24 305.89 330.24 305.89 49.52 298.19 53.7 272.2 67.78 272.2 22.18 313.98 0"/></g></g></svg>